<svg width="33" height="31" viewBox="0 0 33 31" fill="none" xmlns="http://www.w3.org/2000/svg">
<path d="M9.60551 27.4316L26.3542 27.4316C27.0657 27.4316 27.6425 26.8548 27.6425 26.1433L27.6425 9.39464C27.6425 8.6831 27.0657 8.10628 26.3542 8.10628L9.60551 8.10628C8.89397 8.10628 8.31715 8.6831 8.31715 9.39464L8.31715 26.1433C8.31715 26.8548 8.89397 27.4316 9.60551 27.4316Z" fill="url(#paint0_linear_2_1983)" fill-opacity="0.8"/>
<path d="M20.1698 3.98352H3.42117C2.70963 3.98352 2.13281 4.56034 2.13281 5.27188V22.0205C2.13281 22.7321 2.70963 23.3089 3.42117 23.3089H20.1698C20.8814 23.3089 21.4582 22.7321 21.4582 22.0205V5.27188C21.4582 4.56034 20.8814 3.98352 20.1698 3.98352Z" fill="#6A86F2"/>
<path d="M15.0167 13.0149V7.86145" stroke="white" stroke-width="1.5" stroke-linecap="round" stroke-linejoin="round"/>
<path d="M15.0167 19.4567V16.88" stroke="white" stroke-width="1.5" stroke-linecap="round" stroke-linejoin="round"/>
<path fill-rule="evenodd" clip-rule="evenodd" d="M16.9492 14.9474C16.9492 15.3296 16.8358 15.7033 16.6235 16.0211C16.4111 16.3389 16.1093 16.5866 15.7562 16.7329C15.4031 16.8791 15.0145 16.9174 14.6396 16.8428C14.2647 16.7683 13.9204 16.5842 13.6501 16.3139C13.3799 16.0437 13.1958 15.6993 13.1212 15.3244C13.0467 14.9496 13.0849 14.561 13.2312 14.2079C13.3775 13.8548 13.6252 13.5529 13.943 13.3406C14.2608 13.1282 14.6344 13.0149 15.0166 13.0149C15.5292 13.0149 16.0207 13.2185 16.3832 13.5809C16.7456 13.9433 16.9492 14.4349 16.9492 14.9474Z" stroke="white" stroke-width="1.5" stroke-linecap="round" stroke-linejoin="round"/>
<path d="M8.57532 11.7266V19.4567" stroke="white" stroke-width="1.5" stroke-linecap="round" stroke-linejoin="round"/>
<path fill-rule="evenodd" clip-rule="evenodd" d="M10.5074 9.79399C10.5074 9.41177 10.3941 9.03813 10.1817 8.72033C9.96937 8.40252 9.66754 8.15483 9.31442 8.00856C8.96129 7.86229 8.57273 7.82402 8.19785 7.89858C7.82298 7.97315 7.47863 8.15721 7.20836 8.42748C6.93809 8.69775 6.75404 9.04209 6.67947 9.41697C6.6049 9.79184 6.64317 10.1804 6.78944 10.5335C6.93571 10.8867 7.18341 11.1885 7.50121 11.4008C7.81902 11.6132 8.19265 11.7265 8.57487 11.7265C9.08741 11.7265 9.57896 11.5229 9.94138 11.1605C10.3038 10.7981 10.5074 10.3065 10.5074 9.79399V9.79399Z" stroke="white" stroke-width="1.5" stroke-linecap="round" stroke-linejoin="round"/>
<defs>
<linearGradient id="paint0_linear_2_1983" x1="15.1884" y1="7.61076" x2="15.1884" y2="26.4406" gradientUnits="userSpaceOnUse">
<stop stop-color="#FDCB3F"/>
<stop offset="1" stop-color="white"/>
</linearGradient>
</defs>
</svg>
