<svg width="30" height="31" viewBox="0 0 30 31" fill="none" xmlns="http://www.w3.org/2000/svg">
<path d="M6.3501 10.1877V2.93751" stroke="#2D4AB8" stroke-width="3" stroke-linecap="round" stroke-linejoin="round"/>
<path d="M16.0173 10.1877V2.93751" stroke="#2D4AB8" stroke-width="3" stroke-linecap="round" stroke-linejoin="round"/>
<path d="M18.8153 29.1875C16.2514 29.1875 13.7926 28.1691 11.9797 26.3562C10.1668 24.5433 9.14832 22.0844 9.14832 19.5206V14.6871C9.14832 14.0462 9.40293 13.4315 9.85616 12.9782C10.3094 12.525 10.9241 12.2704 11.565 12.2704H26.0655C26.7064 12.2704 27.3211 12.525 27.7743 12.9782C28.2276 13.4315 28.4822 14.0462 28.4822 14.6871V19.5206C28.4822 22.0844 27.4637 24.5433 25.6508 26.3562C23.8379 28.1691 21.3791 29.1875 18.8153 29.1875Z" fill="url(#paint0_linear_2_1918)" fill-opacity="0.8"/>
<path d="M11.1838 25.3717C8.61995 25.3717 6.16113 24.3532 4.34823 22.5403C2.53532 20.7274 1.51685 18.2686 1.51685 15.7047V10.8713C1.51685 10.2303 1.77147 9.6156 2.22469 9.16237C2.67792 8.70915 3.29262 8.45453 3.93358 8.45453H18.434C19.0749 8.45453 19.6896 8.70915 20.1429 9.16237C20.5961 9.6156 20.8507 10.2303 20.8507 10.8713V15.7047C20.8507 18.2686 19.8322 20.7274 18.0193 22.5403C16.2064 24.3532 13.7476 25.3717 11.1838 25.3717Z" fill="#6A86F2"/>
<path d="M8.76672 13.4839H13.6002" stroke="white" stroke-width="1.5" stroke-linecap="round" stroke-linejoin="round"/>
<defs>
<linearGradient id="paint0_linear_2_1918" x1="21.6079" y1="29.6213" x2="21.6079" y2="13.1379" gradientUnits="userSpaceOnUse">
<stop stop-color="white"/>
<stop offset="1" stop-color="#FCBA01"/>
</linearGradient>
</defs>
</svg>
