<svg width="30" height="30" viewBox="0 0 30 30" fill="none" xmlns="http://www.w3.org/2000/svg">
<path d="M27.5127 8.55591C27.8602 8.55591 28.1934 8.69393 28.4391 8.93961C28.6847 9.18529 28.8228 9.5185 28.8228 9.86594L28.8228 24.1758C28.8216 24.5496 28.6726 24.9077 28.4084 25.1719C28.1441 25.4362 27.786 25.5852 27.4123 25.5863L10.5758 25.5863C10.2039 25.5852 9.8476 25.4369 9.58464 25.174C9.32169 24.911 9.17345 24.5547 9.1723 24.1828L9.1723 9.96638C9.17345 9.59265 9.32242 9.23457 9.58669 8.9703C9.85095 8.70604 10.209 8.55707 10.5828 8.55591L27.5127 8.55591Z" fill="url(#paint0_linear_2_1774)" fill-opacity="0.8"/>
<path d="M2.62216 22.0929C2.27472 22.0929 1.94151 21.9549 1.69583 21.7092C1.45015 21.4635 1.31213 21.1303 1.31213 20.7829V6.47297C1.31329 6.09924 1.46226 5.74115 1.72652 5.47689C1.99079 5.21262 2.34888 5.06365 2.7226 5.0625H19.5591C19.931 5.06365 20.2873 5.21189 20.5502 5.47484C20.8132 5.7378 20.9614 6.09411 20.9626 6.46598V20.6824C20.9614 21.0562 20.8125 21.4142 20.5482 21.6785C20.2839 21.9428 19.9258 22.0917 19.5521 22.0929H2.62216Z" fill="#6A86F2"/>
<path d="M1.31213 6.47297V8.55591L20.9626 8.45548V6.46598C20.9614 6.09411 20.8132 5.7378 20.5502 5.47484C20.2873 5.21189 19.931 5.06365 19.5591 5.0625H2.7226C2.34888 5.06365 1.99079 5.21262 1.72652 5.47689C1.46226 5.74115 1.31329 6.09924 1.31213 6.47297Z" fill="#2D4AB8"/>
<path d="M12.1908 14.7927H15.3746" stroke="white" stroke-width="1.5" stroke-linecap="round" stroke-linejoin="round"/>
<path d="M6.92712 12.6702L9.04965 14.7927L6.92712 16.9152" stroke="white" stroke-width="1.5" stroke-linecap="round" stroke-linejoin="round"/>
<defs>
<linearGradient id="paint0_linear_2_1774" x1="16.1591" y1="8.11924" x2="16.1591" y2="24.713" gradientUnits="userSpaceOnUse">
<stop stop-color="#FCBA01"/>
<stop offset="1" stop-color="white"/>
</linearGradient>
</defs>
</svg>
