<svg width="136" height="22" viewBox="0 0 136 22" fill="none" xmlns="http://www.w3.org/2000/svg">
<path fill-rule="evenodd" clip-rule="evenodd" d="M11.6093 13.2709C11.7922 13.0879 11.7922 12.7799 11.6093 12.5971C11.6093 12.5971 8.11499 9.0931 8.09574 9.0931C7.99948 8.99683 7.95135 8.88132 7.95135 8.75617C7.96097 8.63104 8.00911 8.51552 8.09574 8.41926L15.2769 1.23813C15.3732 1.14187 15.4309 1.02635 15.4309 0.881962C15.4309 0.622055 15.2191 0.410278 14.9593 0.410278H7.9706C7.84546 0.410278 7.72032 0.468035 7.63369 0.554671L0.394796 7.79356C0.154141 8.04384 0.00012207 8.38076 0.00012207 8.75617C0.00012207 9.13158 0.144515 9.45889 0.385169 9.70915L7.44117 16.7651C7.62406 16.948 7.9321 16.948 8.11499 16.7651L11.6093 13.2709ZM16.4224 8.4193C16.2395 8.6022 16.2395 8.91024 16.4224 9.09313L19.9359 12.5971C20.0226 12.6933 20.0707 12.8088 20.0707 12.934C20.0707 13.0591 20.0322 13.1843 19.9359 13.2709L12.7548 20.452C12.6586 20.5386 12.6008 20.6638 12.6008 20.8082C12.6008 21.0681 12.8126 21.2798 13.0725 21.2798H20.0611C20.1862 21.2798 20.3113 21.2221 20.398 21.1355L27.6369 13.8966C27.8775 13.6463 28.0316 13.3094 28.0316 12.934C28.0316 12.5585 27.8775 12.2312 27.6466 11.981L20.5906 4.925C20.4076 4.7421 20.0996 4.7421 19.9167 4.925L16.4224 8.4193ZM44.6849 5.72394C43.5008 5.31001 41.6622 4.95384 40.0932 4.95384C37.2534 4.95384 35.463 6.30151 35.463 8.54441C35.463 10.5274 36.647 11.3552 39.1883 11.8847C39.3345 11.9151 39.4792 11.944 39.6211 11.9724C40.8721 12.2224 41.9126 12.4303 41.9126 13.2516C41.9126 13.9062 41.2772 14.2335 40.0739 14.2238C39.0728 14.2046 37.5807 13.9351 35.7614 13.2516L35.126 15.7448C36.8973 16.409 38.7359 16.7266 40.1894 16.7266C43.0484 16.7266 44.9352 15.4945 44.9352 13.0687C44.9352 10.8836 43.3853 10.1424 41.0462 9.64176C40.9391 9.61932 40.835 9.59776 40.734 9.57689L40.7326 9.57654H40.7322C39.32 9.28402 38.5241 9.11915 38.5241 8.40964C38.5241 7.70693 39.1209 7.40852 40.1125 7.40852C41.0846 7.40852 42.4997 7.67805 44.088 8.15937L44.6849 5.72394ZM48.2176 5.2715C49.5557 5.20412 51.0477 5.13673 52.5975 5.13673C55.6009 5.13673 57.5358 6.5229 57.5358 9.17976C57.5358 11.7691 55.5913 13.4057 52.588 13.4057H51.0188V16.4378H48.2176V5.2715ZM51.0285 7.4759V10.951H52.7612C53.9163 10.951 54.7346 10.306 54.7346 9.19897C54.7346 8.0631 53.9163 7.44702 52.7612 7.44702C52.1836 7.44702 51.5964 7.45664 51.0285 7.4759ZM80.0803 5.27154V11.7307L74.8148 5.27154H72.2253V16.4379H75.0266V10.0365L80.3017 16.4379H82.8719V5.27154H80.0803ZM86.5973 5.26184C87.8297 5.19446 89.254 5.12708 90.8227 5.12708C94.5193 5.12708 97.0036 7.22558 96.9932 10.7872C96.9932 14.3778 94.5097 16.5822 91.1027 16.5822C89.4175 16.5822 87.8297 16.5149 86.5973 16.4475V5.26184ZM89.408 14.012C89.9949 14.0409 90.6114 14.0409 91.1793 14.0409C92.7966 14.0409 94.0958 12.7895 94.1053 10.7584C94.1053 8.7754 92.8062 7.6395 90.9479 7.6395C90.4575 7.6395 89.9279 7.6395 89.408 7.66838V14.012ZM121.232 5.72394C120.048 5.31001 118.21 4.95384 116.64 4.95384C113.801 4.95384 112.011 6.30151 112.011 8.54441C112.011 10.5274 113.194 11.3552 115.736 11.8847C115.882 11.9151 116.026 11.944 116.169 11.9724C117.419 12.2224 118.46 12.4303 118.46 13.2516C118.46 13.9062 117.824 14.2335 116.621 14.2238C115.62 14.2046 114.128 13.9351 112.309 13.2516L111.673 15.7448C113.444 16.409 115.284 16.7266 116.737 16.7266C119.596 16.7266 121.483 15.4945 121.483 13.0687C121.483 10.8836 119.932 10.1424 117.593 9.64176C117.486 9.61924 117.381 9.59758 117.28 9.57654H117.279C115.867 9.28402 115.071 9.11915 115.071 8.40964C115.071 7.70693 115.668 7.40852 116.66 7.40852C117.632 7.40852 119.047 7.67805 120.636 8.15937L121.232 5.72394ZM129.328 12.6548H127.576V16.4379H124.775V5.27154H127.585V9.91132H128.134L131.84 5.27154H135.248L131.118 10.4119L135.508 16.4379H132.071L129.328 12.6548ZM63.0998 9.66106V7.63955H68.8754V5.26189H60.2889V16.4283H68.8754V14.0506H63.0998V12.0291H67.9225V9.66106H63.0998ZM103.01 7.63955V9.66106H107.832V12.0291H103.01V14.0506H108.785V16.4283H100.199V5.26189H108.785V7.63955H103.01Z" fill="white"/>
</svg>
